{
  "accessors": [
    {
      "bufferView": 2,
      "componentType": 5126,
      "count": 610,
      "max": [
        3.340500831604004,
        3.6424105167388916,
        3.3771722316741943
      ],
      "min": [
        -3.362147808074951,
        0.2701170742511749,
        -2.0058674812316895
      ],
      "type": "VEC3"
    },
    {
      "bufferView": 2,
      "byteOffset": 7320,
      "componentType": 5126,
      "count": 610,
      "max": [
        1.0,
        1.0,
        1.0
      ],
      "min": [
        -1.0,
        -1.0,
        -1.0
      ],
      "type": "VEC3"
    },
    {
      "bufferView": 1,
      "componentType": 5126,
      "count": 610,
      "max": [
        1.0,
        1.0000001192092896
      ],
      "min": [
        0.0,
        0.0
      ],
      "type": "VEC2"
    },
    {
      "bufferView": 0,
      "componentType": 5125,
      "count": 1644,
      "type": "SCALAR"
    },
    {
      "bufferView": 2,
      "byteOffset": 14640,
      "componentType": 5126,
      "count": 8717,
      "max": [
        3.4482522010803223,
        9.832813262939453,
        3.4832382202148438
      ],
      "min": [
        -3.457780599594116,
        0.29928329586982727,
        -3.372622489929199
      ],
      "type": "VEC3"
    },
    {
      "bufferView": 2,
      "byteOffset": 119244,
      "componentType": 5126,
      "count": 8717,
      "max": [
        1.0,
        1.0,
        1.0
      ],
      "min": [
        -1.0,
        -1.0,
        -1.0
      ],
      "type": "VEC3"
    },
    {
      "bufferView": 1,
      "byteOffset": 4880,
      "componentType": 5126,
      "count": 8717,
      "max": [
        1.0,
        1.0
      ],
      "min": [
        -1.4901161193847656e-08,
        0.0
      ],
      "type": "VEC2"
    },
    {
      "bufferView": 0,
      "byteOffset": 6576,
      "componentType": 5125,
      "count": 30024,
      "type": "SCALAR"
    },
    {
      "bufferView": 2,
      "byteOffset": 223848,
      "componentType": 5126,
      "count": 208,
      "max": [
        3.4678268432617188,
        9.878837585449219,
        3.4348742961883545
      ],
      "min": [
        -3.4013726711273193,
        0.1758432388305664,
        -3.3925681114196777
      ],
      "type": "VEC3"
    },
    {
      "bufferView": 2,
      "byteOffset": 226344,
      "componentType": 5126,
      "count": 208,
      "max": [
        0.6704814434051514,
        1.0,
        0.6703996062278748
      ],
      "min": [
        -0.6706802248954773,
        -1.0,
        -0.7054904103279114
      ],
      "type": "VEC3"
    },
    {
      "bufferView": 1,
      "byteOffset": 74616,
      "componentType": 5126,
      "count": 208,
      "max": [
        0.6250000596046448,
        0.4989416301250458
      ],
      "min": [
        0.3749999701976776,
        0.25
      ],
      "type": "VEC2"
    },
    {
      "bufferView": 0,
      "byteOffset": 126672,
      "componentType": 5125,
      "count": 504,
      "type": "SCALAR"
    },
    {
      "bufferView": 2,
      "byteOffset": 228840,
      "componentType": 5126,
      "count": 444,
      "max": [
        3.287245512008667,
        9.832813262939453,
        3.29297137260437
      ],
      "min": [
        -3.2981855869293213,
        0.28722047805786133,
        -3.3102073669433594
      ],
      "type": "VEC3"
    },
    {
      "bufferView": 2,
      "byteOffset": 234168,
      "componentType": 5126,
      "count": 444,
      "max": [
        1.0,
        1.0,
        0.9999880194664001
      ],
      "min": [
        -1.0,
        -1.0,
        -1.0
      ],
      "type": "VEC3"
    },
    {
      "bufferView": 1,
      "byteOffset": 76280,
      "componentType": 5126,
      "count": 444,
      "max": [
        0.6250000596046448,
        0.7500001192092896
      ],
      "min": [
        0.3749999701976776,
        0.25
      ],
      "type": "VEC2"
    },
    {
      "bufferView": 0,
      "byteOffset": 128688,
      "componentType": 5125,
      "count": 1152,
      "type": "SCALAR"
    },
    {
      "bufferView": 2,
      "byteOffset": 239496,
      "componentType": 5126,
      "count": 76,
      "max": [
        2.4060869216918945,
        7.457812309265137,
        -3.2926971912384033
      ],
      "min": [
        -1.9125769138336182,
        2.707812547683716,
        -3.3102076053619385
      ],
      "type": "VEC3"
    },
    {
      "bufferView": 2,
      "byteOffset": 240408,
      "componentType": 5126,
      "count": 76,
      "max": [
        3.793338976265659e-07,
        9.192484071718354e-07,
        -1.0
      ],
      "min": [
        -1.7924005533132004e-06,
        -3.5443147226033034e-06,
        -1.0
      ],
      "type": "VEC3"
    },
    {
      "bufferView": 1,
      "byteOffset": 79832,
      "componentType": 5126,
      "count": 76,
      "max": [
        0.5769627094268799,
        0.6875001192092896
      ],
      "min": [
        0.42303726077079773,
        0.5625
      ],
      "type": "VEC2"
    },
    {
      "bufferView": 0,
      "byteOffset": 133296,
      "componentType": 5125,
      "count": 204,
      "type": "SCALAR"
    },
    {
      "bufferView": 2,
      "byteOffset": 241320,
      "componentType": 5126,
      "count": 623,
      "max": [
        2.5456936359405518,
        9.832813262939453,
        -2.5293641090393066
      ],
      "min": [
        -2.597787618637085,
        0.3328127861022949,
        -3.4269561767578125
      ],
      "type": "VEC3"
    },
    {
      "bufferView": 2,
      "byteOffset": 248796,
      "componentType": 5126,
      "count": 623,
      "max": [
        1.0,
        1.0,
        0.9999634623527527
      ],
      "min": [
        -1.0,
        -1.0,
        -1.0
      ],
      "type": "VEC3"
    },
    {
      "bufferView": 1,
      "byteOffset": 80440,
      "componentType": 5126,
      "count": 623,
      "max": [
        1.0,
        1.0
      ],
      "min": [
        0.0,
        0.0
      ],
      "type": "VEC2"
    },
    {
      "bufferView": 0,
      "byteOffset": 134112,
      "componentType": 5125,
      "count": 1113,
      "type": "SCALAR"
    },
    {
      "bufferView": 2,
      "byteOffset": 256272,
      "componentType": 5126,
      "count": 268,
      "max": [
        2.9980595111846924,
        0.748999834060669,
        3.0046651363372803
      ],
      "min": [
        -3.011270761489868,
        0.3687467575073242,
        -3.0046651363372803
      ],
      "type": "VEC3"
    },
    {
      "bufferView": 2,
      "byteOffset": 259488,
      "componentType": 5126,
      "count": 268,
      "max": [
        1.0,
        1.0,
        1.0
      ],
      "min": [
        -1.0,
        -1.0,
        -1.0
      ],
      "type": "VEC3"
    },
    {
      "bufferView": 1,
      "byteOffset": 85424,
      "componentType": 5126,
      "count": 268,
      "max": [
        0.875,
        1.0
      ],
      "min": [
        0.125,
        0.0
      ],
      "type": "VEC2"
    },
    {
      "bufferView": 0,
      "byteOffset": 138564,
      "componentType": 5125,
      "count": 546,
      "type": "SCALAR"
    }
  ],
  "asset": {
    "extras": {
      "author": "lunea (https://sketchfab.com/lunea)",
      "license": "CC-BY-4.0 (http://creativecommons.org/licenses/by/4.0/)",
      "source": "https://sketchfab.com/3d-models/sci-fi-elevator-d1bf6c3306ef434abcb36117a274d6f9",
      "title": "Sci Fi Elevator"
    },
    "generator": "Sketchfab-12.68.0",
    "version": "2.0"
  },
  "bufferViews": [
    {
      "buffer": 0,
      "byteLength": 140748,
      "name": "floatBufferViews",
      "target": 34963
    },
    {
      "buffer": 0,
      "byteLength": 87568,
      "byteOffset": 140748,
      "byteStride": 8,
      "name": "floatBufferViews",
      "target": 34962
    },
    {
      "buffer": 0,
      "byteLength": 262704,
      "byteOffset": 228316,
      "byteStride": 12,
      "name": "floatBufferViews",
      "target": 34962
    }
  ],
  "buffers": [
    {
      "byteLength": 491020,
      "uri": "scene.bin"
    }
  ],
  "images": [
    {
      "uri": "textures/lambert1_baseColor.jpeg"
    }
  ],
  "materials": [
    {
      "doubleSided": true,
      "emissiveFactor": [
        0.0709677,
        0.0709677,
        0.0709677
      ],
      "name": "lambert1",
      "pbrMetallicRoughness": {
        "baseColorTexture": {
          "index": 0
        },
        "metallicFactor": 0.0,
        "roughnessFactor": 0.6
      }
    },
    {
      "doubleSided": true,
      "name": "neon",
      "pbrMetallicRoughness": {
        "baseColorFactor": [
          0.09503719215562151,
          1.0,
          1.0,
          1.0
        ],
        "metallicFactor": 0.6361339583970402,
        "roughnessFactor": 0.25081278723941824
      }
    },
    {
      "doubleSided": true,
      "name": "aiStandardSurface6",
      "pbrMetallicRoughness": {
        "baseColorFactor": [
          0.03858753884586705,
          0.03858753884586705,
          0.03858753884586705,
          1.0
        ],
        "roughnessFactor": 0.20056689641117753
      }
    },
    {
      "alphaMode": "BLEND",
      "doubleSided": true,
      "name": "szklo1",
      "pbrMetallicRoughness": {
        "baseColorFactor": [
          0.0,
          0.0,
          0.0,
          0.5105192313264385
        ],
        "metallicFactor": 0.0,
        "roughnessFactor": 0.6
      }
    },
    {
      "doubleSided": true,
      "name": "czarny",
      "pbrMetallicRoughness": {
        "metallicFactor": 0.0,
        "roughnessFactor": 0.6
      }
    },
    {
      "doubleSided": true,
      "name": "metal",
      "pbrMetallicRoughness": {
        "baseColorFactor": [
          0.06518791730249957,
          0.06518791730249957,
          0.06518791730249957,
          1.0
        ],
        "roughnessFactor": 0.11263658746175631
      }
    },
    {
      "doubleSided": true,
      "name": "jasnymetal",
      "pbrMetallicRoughness": {
        "baseColorFactor": [
          0.2953043464009595,
          0.2953043464009595,
          0.2953043464009595,
          1.0
        ],
        "roughnessFactor": 0.30105867806765885
      }
    }
  ],
  "meshes": [
    {
      "name": "pCube16_lambert1_0",
      "primitives": [
        {
          "attributes": {
            "NORMAL": 1,
            "POSITION": 0,
            "TEXCOORD_0": 2
          },
          "indices": 3,
          "material": 0,
          "mode": 4
        }
      ]
    },
    {
      "name": "pCube16_neon_0",
      "primitives": [
        {
          "attributes": {
            "NORMAL": 5,
            "POSITION": 4,
            "TEXCOORD_0": 6
          },
          "indices": 7,
          "material": 1,
          "mode": 4
        }
      ]
    },
    {
      "name": "pCube16_aiStandardSurface6_0",
      "primitives": [
        {
          "attributes": {
            "NORMAL": 9,
            "POSITION": 8,
            "TEXCOORD_0": 10
          },
          "indices": 11,
          "material": 2,
          "mode": 4
        }
      ]
    },
    {
      "name": "pCube16_szklo1_0",
      "primitives": [
        {
          "attributes": {
            "NORMAL": 13,
            "POSITION": 12,
            "TEXCOORD_0": 14
          },
          "indices": 15,
          "material": 3,
          "mode": 4
        }
      ]
    },
    {
      "name": "pCube16_czarny_0",
      "primitives": [
        {
          "attributes": {
            "NORMAL": 17,
            "POSITION": 16,
            "TEXCOORD_0": 18
          },
          "indices": 19,
          "material": 4,
          "mode": 4
        }
      ]
    },
    {
      "name": "pCube16_metal_0",
      "primitives": [
        {
          "attributes": {
            "NORMAL": 21,
            "POSITION": 20,
            "TEXCOORD_0": 22
          },
          "indices": 23,
          "material": 5,
          "mode": 4
        }
      ]
    },
    {
      "name": "pCube16_jasnymetal_0",
      "primitives": [
        {
          "attributes": {
            "NORMAL": 25,
            "POSITION": 24,
            "TEXCOORD_0": 26
          },
          "indices": 27,
          "material": 6,
          "mode": 4
        }
      ]
    }
  ],
  "nodes": [
    {
      "children": [
        1
      ],
      "matrix": [
        1.0,
        0.0,
        0.0,
        0.0,
        0.0,
        2.220446049250313e-16,
        -1.0,
        0.0,
        0.0,
        1.0,
        2.220446049250313e-16,
        0.0,
        0.0,
        0.0,
        0.0,
        1.0
      ],
      "name": "Sketchfab_model"
    },
    {
      "children": [
        2
      ],
      "matrix": [
        1.0,
        0.0,
        0.0,
        0.0,
        0.0,
        0.0,
        1.0,
        0.0,
        0.0,
        -1.0,
        0.0,
        0.0,
        0.0,
        0.0,
        0.0,
        1.0
      ],
      "name": "c02046ceeafe43e1ba489afa5828ce96.fbx"
    },
    {
      "children": [
        3
      ],
      "name": "RootNode"
    },
    {
      "children": [
        4,
        5,
        6,
        7,
        8,
        9,
        10
      ],
      "name": "pCube16"
    },
    {
      "mesh": 0,
      "name": "pCube16_lambert1_0"
    },
    {
      "mesh": 1,
      "name": "pCube16_neon_0"
    },
    {
      "mesh": 2,
      "name": "pCube16_aiStandardSurface6_0"
    },
    {
      "mesh": 3,
      "name": "pCube16_szklo1_0"
    },
    {
      "mesh": 4,
      "name": "pCube16_czarny_0"
    },
    {
      "mesh": 5,
      "name": "pCube16_metal_0"
    },
    {
      "mesh": 6,
      "name": "pCube16_jasnymetal_0"
    }
  ],
  "samplers": [
    {
      "magFilter": 9729,
      "minFilter": 9987,
      "wrapS": 10497,
      "wrapT": 10497
    }
  ],
  "scene": 0,
  "scenes": [
    {
      "name": "Sketchfab_Scene",
      "nodes": [
        0
      ]
    }
  ],
  "textures": [
    {
      "sampler": 0,
      "source": 0
    }
  ]
}
